<svg width="74" height="18" viewBox="0 0 74 18" fill="none" xmlns="http://www.w3.org/2000/svg">
<g clip-path="url(#clip0_444_6135)">
<path d="M9 18C13.9706 18 18 13.9706 18 9C18 4.02944 13.9706 0 9 0C4.02944 0 0 4.02944 0 9C0 13.9706 4.02944 18 9 18Z" fill="#F0F0F0"/>
<path d="M8.60846 9.00006H17.9997C17.9997 8.18774 17.8915 7.4008 17.6897 6.65222H8.60846V9.00006Z" fill="#D80027"/>
<path d="M8.60846 4.30389H16.6788C16.1279 3.40488 15.4234 2.61024 14.6021 1.95605H8.60846V4.30389Z" fill="#D80027"/>
<path d="M8.99979 18C11.1179 18 13.0648 17.2679 14.6021 16.0435H3.39743C4.93481 17.2679 6.88166 18 8.99979 18Z" fill="#D80027"/>
<path d="M1.32079 13.6949H16.6789C17.1212 12.9732 17.4642 12.1843 17.6898 11.347H0.309875C0.535473 12.1843 0.878493 12.9732 1.32079 13.6949Z" fill="#D80027"/>
<path d="M4.16897 1.40548H4.98913L4.22624 1.95971L4.51765 2.85652L3.75479 2.30228L2.99194 2.85652L3.24366 2.08178C2.57196 2.64129 1.98323 3.29681 1.49808 4.02722H1.76087L1.27526 4.38001C1.1996 4.50622 1.12704 4.63444 1.0575 4.76455L1.28939 5.47826L0.856758 5.16393C0.749215 5.39177 0.650848 5.62475 0.56243 5.86259L0.81791 6.64896H1.76087L0.99798 7.2032L1.28939 8.1L0.526535 7.54576L0.0695742 7.87778C0.0238359 8.24544 0 8.61993 0 9H9C9 4.02947 9 3.44348 9 0C7.22208 0 5.56471 0.515742 4.16897 1.40548ZM4.51765 8.1L3.75479 7.54576L2.99194 8.1L3.28335 7.2032L2.52046 6.64896H3.46342L3.75479 5.75216L4.04617 6.64896H4.98913L4.22624 7.2032L4.51765 8.1ZM4.22624 4.58146L4.51765 5.47826L3.75479 4.92402L2.99194 5.47826L3.28335 4.58146L2.52046 4.02722H3.46342L3.75479 3.13042L4.04617 4.02722H4.98913L4.22624 4.58146ZM7.74591 8.1L6.98305 7.54576L6.22019 8.1L6.51161 7.2032L5.74871 6.64896H6.69168L6.98305 5.75216L7.27443 6.64896H8.21739L7.4545 7.2032L7.74591 8.1ZM7.4545 4.58146L7.74591 5.47826L6.98305 4.92402L6.22019 5.47826L6.51161 4.58146L5.74871 4.02722H6.69168L6.98305 3.13042L7.27443 4.02722H8.21739L7.4545 4.58146ZM7.4545 1.95971L7.74591 2.85652L6.98305 2.30228L6.22019 2.85652L6.51161 1.95971L5.74871 1.40548H6.69168L6.98305 0.508676L7.27443 1.40548H8.21739L7.4545 1.95971Z" fill="#0052B4"/>
</g>
<g clip-path="url(#clip1_444_6135)">
<path d="M23 18C27.9706 18 32 13.9706 32 9C32 4.02944 27.9706 0 23 0C18.0294 0 14 4.02944 14 9C14 13.9706 18.0294 18 23 18Z" fill="#F0F0F0"/>
<path d="M32.0006 9.00076C32.0006 5.43261 29.9241 2.34955 26.9137 0.893799V17.1077C29.9241 15.652 32.0006 12.5689 32.0006 9.00076Z" fill="#D80027"/>
<path d="M14.0003 9.00027C14.0003 12.5684 16.0768 15.6515 19.0873 17.1072V0.893311C16.0768 2.34906 14.0003 5.43212 14.0003 9.00027Z" fill="#D80027"/>
<path d="M24.5657 10.1746L26.1308 9.39201L25.3483 9.00073V8.21811L23.783 9.00073L24.5657 7.4355H23.783L23.0004 6.2616L22.2178 7.4355H21.4352L22.2178 9.00073L20.6526 8.21811V9.00073L19.87 9.39201L21.4352 10.1746L21.0439 10.9572H22.6091V12.1311H23.3917V10.9572H24.9569L24.5657 10.1746Z" fill="#D80027"/>
</g>
<g clip-path="url(#clip2_444_6135)">
<path d="M37 18C41.9706 18 46 13.9706 46 9C46 4.02944 41.9706 0 37 0C32.0294 0 28 4.02944 28 9C28 13.9706 32.0294 18 37 18Z" fill="#FFDA44"/>
<path d="M46.0003 8.99984C46.0003 5.91097 44.4439 3.18587 42.0728 1.56506H31.9277C29.5566 3.18587 28.0003 5.91097 28.0003 8.99984C28.0003 12.0888 29.5566 14.8138 31.9277 16.4346H42.0728C44.4439 14.8138 46.0003 12.0888 46.0003 8.99984Z" fill="#A2001D"/>
<path d="M35.0439 6.65261H38.9569V5.08742L38.1743 5.47871L37.0004 4.30481L35.8265 5.47871L35.0439 5.08742V6.65261Z" fill="#FFDA44"/>
<path d="M40.5222 9.00021H38.5664C38.6431 8.86753 38.6877 8.714 38.6877 8.54975C38.6877 8.05099 38.2833 7.64673 37.7847 7.64673C37.4401 7.64673 37.1408 7.83981 36.9886 8.12352C36.8363 7.83977 36.5371 7.64673 36.1925 7.64673C35.6938 7.64673 35.2895 8.05099 35.2895 8.54975C35.2895 8.71404 35.3341 8.86756 35.4108 9.00021H33.4786C33.4786 9.59867 33.9999 10.0838 34.5983 10.0838H34.5622C34.5622 10.5747 34.8887 10.9892 35.3364 11.1223L34.4569 12.0019L35.2869 12.832L36.4644 11.6545C36.5106 11.6714 36.5583 11.6849 36.6076 11.6942L35.8961 13.3006C36.237 13.4393 36.6097 13.5162 37.0004 13.5162C37.3911 13.5162 37.7638 13.4393 38.1047 13.3006L37.3933 11.6942C37.4425 11.6849 37.4903 11.6714 37.5363 11.6545L38.7138 12.832L39.5439 12.0019L38.6643 11.1223C39.1119 10.9891 39.4385 10.5747 39.4385 10.0838H39.4024C40.0009 10.0838 40.5222 9.59867 40.5222 9.00021Z" fill="#FFDA44"/>
<path d="M37.0004 9.58716L35.7286 10.1741V11.348L37.0004 12.1306L38.2721 11.348V10.1741L37.0004 9.58716Z" fill="#6DA544"/>
<path d="M38.2721 8.99939H35.7286V10.5646H38.2721V8.99939Z" fill="#0052B4"/>
</g>
<g clip-path="url(#clip3_444_6135)">
<path d="M42 9C42 4.02947 46.0295 0 51 0C55.9705 0 60 4.02947 60 9L51 9.78261L42 9Z" fill="#FFDA44"/>
<path d="M43.2044 13.5003C44.7606 16.1903 47.6688 18.0003 51.0001 18.0003C54.3313 18.0003 57.2396 16.1903 58.7958 13.5003L51.0001 12.9133L43.2044 13.5003Z" fill="#D80027"/>
<path d="M58.7953 13.4999C59.5611 12.1761 59.9996 10.6393 59.9996 8.99988H41.9996C41.9996 10.6393 42.4382 12.1761 43.204 13.4999H58.7953Z" fill="#0052B4"/>
</g>
<g clip-path="url(#clip4_444_6135)">
<path d="M56 8.99945C56 9.61592 56.0622 10.2179 56.1803 10.7995L65 11.3473L73.8198 10.7995C73.9379 10.2179 74 9.61592 74 8.99945C74 8.38299 73.9379 7.78104 73.8198 7.19945L65 6.65161L56.1803 7.19945C56.0622 7.78104 56 8.38299 56 8.99945Z" fill="#0052B4"/>
<path d="M73.8196 10.7993H56.1801C57.0139 14.9073 60.6457 17.9993 64.9998 17.9993C69.3539 17.9993 72.9857 14.9073 73.8196 10.7993Z" fill="#F0F0F0"/>
<path d="M56.1801 7.2H73.8196C72.9857 3.09199 69.354 0 64.9998 0C60.6457 0 57.0139 3.09199 56.1801 7.2Z" fill="black"/>
<path d="M68.9132 7.1995H61.0871L62.6861 6.44737L61.8346 4.89891L63.5708 5.23096L63.7909 3.47705L65.0002 4.76707L66.2096 3.47705L66.4295 5.23096L68.1658 4.89891L67.3144 6.44744L68.9132 7.1995Z" fill="#FFDA44"/>
<path d="M56 9.0009C56 13.9714 60.0295 18.0009 65 18.0009L57.7999 3.60059C56.6698 5.10489 56 6.9746 56 9.0009Z" fill="#A2001D"/>
<path d="M64.9997 17.9999C69.9703 17.9999 73.9997 13.9705 73.9997 8.99993C73.9997 6.97363 73.3299 5.10391 72.1999 3.59961L64.9997 17.9999Z" fill="#A2001D"/>
</g>
<defs>
<clipPath id="clip0_444_6135">
<rect width="18" height="18" fill="white"/>
</clipPath>
<clipPath id="clip1_444_6135">
<rect width="18" height="18" fill="white" transform="translate(14)"/>
</clipPath>
<clipPath id="clip2_444_6135">
<rect width="18" height="18" fill="white" transform="translate(28)"/>
</clipPath>
<clipPath id="clip3_444_6135">
<rect width="18" height="18" fill="white" transform="translate(42)"/>
</clipPath>
<clipPath id="clip4_444_6135">
<rect width="18" height="18" fill="white" transform="translate(56)"/>
</clipPath>
</defs>
</svg>
