<svg width="40" height="40" viewBox="0 0 40 40" fill="none" xmlns="http://www.w3.org/2000/svg">
<rect width="39.9995" height="39.9995" rx="5.33327" fill="white"/>
<path d="M15.8003 21.9718C15.046 21.9718 14.4874 21.4228 14.4874 20.6971C14.4874 19.9715 15.046 19.4224 15.786 19.4224C16.5308 19.4224 17.0893 19.9715 17.0893 20.7019C17.0893 20.7687 17.0845 20.8403 17.075 20.9024H15.0603C15.1415 21.2557 15.4279 21.4896 15.8099 21.4896C16.0915 21.4896 16.335 21.3655 16.4591 21.1793H17.0511C16.8554 21.6519 16.378 21.9718 15.8003 21.9718ZM15.786 19.9046C15.4327 19.9046 15.151 20.1242 15.0651 20.4632H16.5164C16.4353 20.129 16.1488 19.9046 15.786 19.9046ZM18.6328 21.9718C17.9406 21.9718 17.4202 21.5326 17.4202 20.9597H18.0026C18.0026 21.2461 18.2795 21.461 18.6376 21.461C18.9718 21.461 19.2391 21.2796 19.2391 21.017C19.2391 20.3629 17.4775 20.6589 17.4775 19.537C17.4775 18.945 17.9835 18.5631 18.6185 18.5631C19.2725 18.5631 19.769 18.9784 19.769 19.5322H19.1866C19.1866 19.2697 18.9384 19.0739 18.6089 19.0739C18.3129 19.0739 18.0599 19.2362 18.0599 19.494C18.0599 20.1481 19.8263 19.8091 19.8263 20.9549C19.8263 21.5708 19.2964 21.9718 18.6328 21.9718ZM20.3616 21.9145V18.6204H20.9298V21.9145H20.3616ZM21.6391 21.9145V18.6204H22.3456L23.4294 20.4871L24.5131 18.6204H25.2149V21.9145H24.6468V19.4463L23.5869 21.2796H23.2623L22.2072 19.4463V21.9145H21.6391Z" fill="#A70000"/>
<path d="M25.06 28.6831L13.0208 28.6831C12.1364 28.6831 11.4195 27.9661 11.4195 27.0818L11.4195 13.0085C11.4195 12.1242 12.1364 11.4072 13.0208 11.4072L27.094 11.4072C27.9784 11.4072 28.6953 12.1242 28.6953 13.0085L28.6953 18.642" stroke="#A70000" stroke-width="1.13425" stroke-linecap="round" stroke-linejoin="round"/>
<path d="M28.7051 14.2736H30.8185" stroke="#A70000" stroke-width="1.13425" stroke-linecap="round" stroke-linejoin="round"/>
<path d="M28.705 17.0027H30.5403" stroke="#A70000" stroke-width="1.13425" stroke-linecap="round" stroke-linejoin="round"/>
<path d="M32.5125 14.8194C32.8257 14.8194 33.0796 14.5655 33.0796 14.2522C33.0796 13.939 32.8257 13.6851 32.5125 13.6851C32.1993 13.6851 31.9454 13.939 31.9454 14.2522C31.9454 14.5655 32.1993 14.8194 32.5125 14.8194Z" fill="#A70000"/>
<path d="M32.2859 17.542C32.5991 17.542 32.8531 17.2881 32.8531 16.9749C32.8531 16.6617 32.5991 16.4078 32.2859 16.4078C31.9727 16.4078 31.7188 16.6617 31.7188 16.9749C31.7188 17.2881 31.9727 17.542 32.2859 17.542Z" fill="#A70000"/>
<path d="M11.4113 25.1908H9.29697" stroke="#A70000" stroke-width="1.13425" stroke-linecap="round" stroke-linejoin="round"/>
<path d="M11.4105 22.4605H9.57428" stroke="#A70000" stroke-width="1.13425" stroke-linecap="round" stroke-linejoin="round"/>
<path d="M11.4098 19.732H10.0665" stroke="#A70000" stroke-width="1.13425" stroke-linecap="round" stroke-linejoin="round"/>
<path d="M11.4105 17.0025H9.57428" stroke="#A70000" stroke-width="1.13425" stroke-linecap="round" stroke-linejoin="round"/>
<path d="M11.4113 14.2736H9.29697" stroke="#A70000" stroke-width="1.13425" stroke-linecap="round" stroke-linejoin="round"/>
<path d="M7.5594 25.7084C7.87262 25.7084 8.12652 25.4545 8.12652 25.1413C8.12652 24.8281 7.87262 24.5742 7.5594 24.5742C7.24619 24.5742 6.99228 24.8281 6.99228 25.1413C6.99228 25.4545 7.24619 25.7084 7.5594 25.7084Z" fill="#A70000"/>
<path d="M7.89921 22.9859C8.21243 22.9859 8.46634 22.732 8.46634 22.4187C8.46634 22.1055 8.21243 21.8516 7.89921 21.8516C7.586 21.8516 7.33209 22.1055 7.33209 22.4187C7.33209 22.732 7.586 22.9859 7.89921 22.9859Z" fill="#A70000"/>
<path d="M8.46757 20.2637C8.78079 20.2637 9.0347 20.0098 9.0347 19.6966C9.0347 19.3834 8.78079 19.1295 8.46757 19.1295C8.15436 19.1295 7.90045 19.3834 7.90045 19.6966C7.90045 20.0098 8.15436 20.2637 8.46757 20.2637Z" fill="#A70000"/>
<path d="M7.89921 17.542C8.21243 17.542 8.46634 17.2881 8.46634 16.9749C8.46634 16.6617 8.21243 16.4078 7.89921 16.4078C7.586 16.4078 7.33209 16.6617 7.33209 16.9749C7.33209 17.2881 7.586 17.542 7.89921 17.542Z" fill="#A70000"/>
<path d="M7.5594 14.8195C7.87262 14.8195 8.12652 14.5656 8.12652 14.2524C8.12652 13.9392 7.87262 13.6852 7.5594 13.6852C7.24619 13.6852 6.99228 13.9392 6.99228 14.2524C6.99228 14.5656 7.24619 14.8195 7.5594 14.8195Z" fill="#A70000"/>
<path d="M23.0703 28.7054L23.0703 30.5406" stroke="#A70000" stroke-width="1.13425" stroke-linecap="round" stroke-linejoin="round"/>
<path d="M20.3417 28.7054L20.3417 30.0487" stroke="#A70000" stroke-width="1.13425" stroke-linecap="round" stroke-linejoin="round"/>
<path d="M17.6133 28.7056L17.6133 30.5408" stroke="#A70000" stroke-width="1.13425" stroke-linecap="round" stroke-linejoin="round"/>
<path d="M14.8828 28.7056L14.8828 30.8189" stroke="#A70000" stroke-width="1.13425" stroke-linecap="round" stroke-linejoin="round"/>
<path d="M22.5318 32.2869C22.5318 32.6001 22.7857 32.854 23.0989 32.854C23.4121 32.854 23.666 32.6001 23.666 32.2869C23.666 31.9736 23.4121 31.7197 23.0989 31.7197C22.7857 31.7197 22.5318 31.9736 22.5318 32.2869Z" fill="#A70000"/>
<path d="M19.8091 31.9465C19.8091 32.2597 20.063 32.5136 20.3762 32.5136C20.6894 32.5136 20.9434 32.2597 20.9434 31.9465C20.9434 31.6333 20.6894 31.3794 20.3762 31.3794C20.063 31.3794 19.8091 31.6333 19.8091 31.9465Z" fill="#A70000"/>
<path d="M17.0865 32.2869C17.0865 32.6001 17.3404 32.854 17.6536 32.854C17.9668 32.854 18.2207 32.6001 18.2207 32.2869C18.2207 31.9736 17.9668 31.7197 17.6536 31.7197C17.3404 31.7197 17.0865 31.9736 17.0865 32.2869Z" fill="#A70000"/>
<path d="M14.3638 32.5134C14.3638 32.8266 14.6177 33.0805 14.9309 33.0805C15.2441 33.0805 15.498 32.8266 15.498 32.5134C15.498 32.2002 15.2441 31.9463 14.9309 31.9463C14.6177 31.9463 14.3638 32.2002 14.3638 32.5134Z" fill="#A70000"/>
<path d="M14.8828 11.4121L14.8828 9.29785" stroke="#A70000" stroke-width="1.13425" stroke-linecap="round" stroke-linejoin="round"/>
<path d="M17.6133 11.4124L17.6133 9.57617" stroke="#A70000" stroke-width="1.13425" stroke-linecap="round" stroke-linejoin="round"/>
<path d="M20.3418 11.4112L20.3418 10.0679" stroke="#A70000" stroke-width="1.13425" stroke-linecap="round" stroke-linejoin="round"/>
<path d="M23.0702 11.4122L23.0702 9.57596" stroke="#A70000" stroke-width="1.13425" stroke-linecap="round" stroke-linejoin="round"/>
<path d="M25.7989 11.4121L25.7989 9.29782" stroke="#A70000" stroke-width="1.13425" stroke-linecap="round" stroke-linejoin="round"/>
<path d="M14.3638 7.5598C14.3638 7.87301 14.6177 8.12692 14.9309 8.12692C15.2441 8.12692 15.498 7.87301 15.498 7.5598C15.498 7.24659 15.2441 6.99268 14.9309 6.99268C14.6177 6.99268 14.3638 7.24659 14.3638 7.5598Z" fill="#A70000"/>
<path d="M17.0865 7.90013C17.0865 8.21334 17.3404 8.46725 17.6536 8.46725C17.9668 8.46725 18.2207 8.21334 18.2207 7.90013C18.2207 7.58692 17.9668 7.33301 17.6536 7.33301C17.3404 7.33301 17.0865 7.58692 17.0865 7.90013Z" fill="#A70000"/>
<path d="M19.8091 8.46751C19.8091 8.78073 20.063 9.03464 20.3762 9.03464C20.6894 9.03464 20.9434 8.78073 20.9434 8.46751C20.9434 8.1543 20.6894 7.90039 20.3762 7.90039C20.063 7.90039 19.8091 8.1543 19.8091 8.46751Z" fill="#A70000"/>
<path d="M22.5318 7.90013C22.5318 8.21334 22.7857 8.46725 23.0989 8.46725C23.4121 8.46725 23.666 8.21334 23.666 7.90013C23.666 7.58692 23.4121 7.33301 23.0989 7.33301C22.7857 7.33301 22.5318 7.58692 22.5318 7.90013Z" fill="#A70000"/>
<path d="M25.2525 7.56029C25.2525 7.8735 25.5064 8.12741 25.8196 8.12741C26.1328 8.12741 26.3867 7.8735 26.3867 7.56029C26.3867 7.24707 26.1328 6.99316 25.8196 6.99316C25.5064 6.99316 25.2525 7.24707 25.2525 7.56029Z" fill="#A70000"/>
<path d="M28.7271 20.3088L32.3937 25.8803H25.0604L28.7271 20.3088Z" fill="#A70000"/>
<rect x="27.0975" y="25.0485" width="3.14811" height="3.3827" fill="#A70000"/>
<rect x="26.9862" y="29.0461" width="3.14811" height="0.922556" fill="#A70000"/>
<rect x="26.9862" y="30.5832" width="3.14811" height="0.922556" fill="#A70000"/>
<rect x="26.9862" y="32.1213" width="3.14811" height="0.922556" fill="#A70000"/>
</svg>
