<svg width="57" height="57" viewBox="0 0 57 57" fill="none" xmlns="http://www.w3.org/2000/svg">
<g filter="url(#filter0_d_444_5898)">
<mask id="mask0_444_5898" style="mask-type:luminance" maskUnits="userSpaceOnUse" x="4" y="4" width="49" height="49">
<path d="M28.2589 52.259C41.5138 52.259 52.259 41.5138 52.259 28.2589C52.259 15.004 41.5138 4.25877 28.2589 4.25877C15.004 4.25877 4.25877 15.004 4.25877 28.2589C4.25877 41.5138 15.004 52.259 28.2589 52.259Z" fill="white"/>
</mask>
<g mask="url(#mask0_444_5898)">
<path d="M82.8777 7.81882H-10.1646V11.5506H82.8777V7.81882Z" fill="white"/>
<path d="M82.8777 15.2834H-10.1646V19.0152H82.8777V15.2834Z" fill="white"/>
<path d="M82.8777 22.748H-10.1646V26.4797H82.8777V22.748Z" fill="white"/>
<path d="M82.8777 30.213H-10.1646V33.9448H82.8777V30.213Z" fill="white"/>
<path d="M82.8777 37.6766H-10.1646V41.4084H82.8777V37.6766Z" fill="white"/>
<path d="M82.8777 45.1411H-10.1646V48.8729H82.8777V45.1411Z" fill="white"/>
<path d="M82.8779 4.08698H-10.1644V7.81877H82.8779V4.08698Z" fill="#B02235"/>
<path d="M82.8777 11.5516H-10.1646V15.2834H82.8777V11.5516Z" fill="#B02235"/>
<path d="M82.8777 19.0157H-10.1646V22.7475H82.8777V19.0157Z" fill="#B02235"/>
<path d="M82.8777 26.4802H-10.1646V30.212H82.8777V26.4802Z" fill="#B02235"/>
<path d="M82.8777 33.9448H-10.1646V37.6766H82.8777V33.9448Z" fill="#B02235"/>
<path d="M82.8777 41.4093H-10.1646V45.1411H82.8777V41.4093Z" fill="#B02235"/>
<path d="M82.8777 48.8734H-10.1646V52.6052H82.8777V48.8734Z" fill="#B02235"/>
<path d="M27.0532 4.08698H-10.1644V30.213H27.0532V4.08698Z" fill="#3C3B6E"/>
<path d="M6.37529 9.43758L6.69347 10.4198H7.72759L6.89061 11.0274L7.21111 12.0107L6.37529 11.4032L5.53832 12.0107L5.85766 11.0274L5.02184 10.4198H6.05595L6.37529 9.43758Z" fill="white"/>
<path d="M10.5174 9.43758L10.8368 10.4198H11.8709L11.0351 11.0274L11.3544 12.0107L10.5174 11.4032L9.68162 12.0107L10.001 11.0274L9.16515 10.4198H10.1993L10.5174 9.43758Z" fill="white"/>
<path d="M14.6515 9.43758L14.9709 10.4198H16.005L15.168 11.0274L15.4873 12.0107L14.6515 11.4032L13.8157 12.0107L14.135 11.0274L13.2981 10.4198H14.3322L14.6515 9.43758Z" fill="white"/>
<path d="M18.7754 9.43758L19.0948 10.4198H20.1277L19.293 11.0274L19.6124 12.0107L18.7754 11.4032L17.9396 12.0107L18.2589 11.0274L17.4231 10.4198H18.4561L18.7754 9.43758Z" fill="white"/>
<path d="M22.9189 9.43758L23.2382 10.4198H24.2723L23.4353 11.0274L23.7547 12.0107L22.9189 11.4032L22.0819 12.0107L22.4024 11.0274L21.5654 10.4198H22.5995L22.9189 9.43758Z" fill="white"/>
<path d="M6.37529 18.1505L6.69347 19.1339H7.72759L6.89061 19.7414L7.21111 20.7248L6.37529 20.1172L5.53832 20.7248L5.85766 19.7414L5.02184 19.1339H6.05595L6.37529 18.1505Z" fill="white"/>
<path d="M10.5174 18.1505L10.8368 19.1339H11.8709L11.0351 19.7414L11.3544 20.7248L10.5174 20.1172L9.68162 20.7248L10.001 19.7414L9.16515 19.1339H10.1993L10.5174 18.1505Z" fill="white"/>
<path d="M14.6515 18.1505L14.9709 19.1339H16.005L15.168 19.7414L15.4873 20.7248L14.6515 20.1172L13.8157 20.7248L14.135 19.7414L13.2981 19.1339H14.3322L14.6515 18.1505Z" fill="white"/>
<path d="M18.7754 18.1505L19.0948 19.1339H20.1277L19.293 19.7414L19.6124 20.7248L18.7754 20.1172L17.9396 20.7248L18.2589 19.7414L17.4231 19.1339H18.4561L18.7754 18.1505Z" fill="white"/>
<path d="M22.9189 18.1505L23.2382 19.1339H24.2723L23.4353 19.7414L23.7547 20.7248L22.9189 20.1172L22.0819 20.7248L22.4024 19.7414L21.5654 19.1339H22.5995L22.9189 18.1505Z" fill="white"/>
<path d="M6.37529 26.8649L6.69347 27.8483H7.72759L6.89061 28.4558L7.21111 29.4381L6.37529 28.8317L5.53832 29.4381L5.85766 28.4558L5.02184 27.8483H6.05595L6.37529 26.8649Z" fill="white"/>
<path d="M10.5174 26.8649L10.8368 27.8483H11.8709L11.0351 28.4558L11.3544 29.4381L10.5174 28.8317L9.68162 29.4381L10.001 28.4558L9.16515 27.8483H10.1993L10.5174 26.8649Z" fill="white"/>
<path d="M14.6515 26.8649L14.9709 27.8483H16.005L15.168 28.4558L15.4873 29.4381L14.6515 28.8317L13.8157 29.4381L14.135 28.4558L13.2981 27.8483H14.3322L14.6515 26.8649Z" fill="white"/>
<path d="M18.7754 26.8649L19.0948 27.8483H20.1277L19.293 28.4558L19.6124 29.4381L18.7754 28.8317L17.9396 29.4381L18.2589 28.4558L17.4231 27.8483H18.4561L18.7754 26.8649Z" fill="white"/>
<path d="M22.9189 26.8649L23.2382 27.8483H24.2723L23.4353 28.4558L23.7547 29.4381L22.9189 28.8317L22.0819 29.4381L22.4024 28.4558L21.5654 27.8483H22.5995L22.9189 26.8649Z" fill="white"/>
<path d="M4.29664 5.08977L4.61713 6.07315H5.65009L4.81427 6.68071L5.13361 7.66409L4.29664 7.05538L3.46082 7.66409L3.78016 6.68071L2.94434 6.07315H3.97729L4.29664 5.08977Z" fill="white"/>
<path d="M8.44365 5.08977L8.76414 6.07315H9.7971L8.96128 6.68071L9.27947 7.66409L8.44365 7.05538L7.60783 7.66409L7.92717 6.68071L7.09019 6.07315H8.12431L8.44365 5.08977Z" fill="white"/>
<path d="M12.5859 5.08977L12.9053 6.07315H13.9394L13.1024 6.68071L13.4229 7.66409L12.5859 7.05538L11.7501 7.66409L12.0695 6.68071L11.2325 6.07315H12.2666L12.5859 5.08977Z" fill="white"/>
<path d="M16.7244 5.08977L17.0438 6.07315H18.0767L17.2409 6.68071L17.5603 7.66409L16.7244 7.05538L15.8886 7.66409L16.2068 6.68071L15.371 6.07315H16.4039L16.7244 5.08977Z" fill="white"/>
<path d="M20.8577 5.08977L21.1771 6.07315H22.2112L21.3742 6.68071L21.6947 7.66409L20.8577 7.05538L20.0219 7.66409L20.3412 6.68071L19.5054 6.07315H20.5395L20.8577 5.08977Z" fill="white"/>
<path d="M24.9872 5.08977L25.3054 6.07315H26.3395L25.5037 6.68071L25.823 7.66409L24.9872 7.05538L24.1503 7.66409L24.4696 6.68071L23.6338 6.07315H24.6679L24.9872 5.08977Z" fill="white"/>
<path d="M4.29664 13.8057L4.61713 14.7879H5.65009L4.81427 15.3955L5.13361 16.3789L4.29664 15.7702L3.46082 16.3789L3.78016 15.3955L2.94434 14.7879H3.97729L4.29664 13.8057Z" fill="white"/>
<path d="M8.44365 13.8057L8.76414 14.7879H9.7971L8.96128 15.3955L9.27947 16.3789L8.44365 15.7702L7.60783 16.3789L7.92717 15.3955L7.09019 14.7879H8.12431L8.44365 13.8057Z" fill="white"/>
<path d="M12.5859 13.8057L12.9053 14.7879H13.9394L13.1024 15.3955L13.4229 16.3789L12.5859 15.7702L11.7501 16.3789L12.0695 15.3955L11.2325 14.7879H12.2666L12.5859 13.8057Z" fill="white"/>
<path d="M16.7244 13.8057L17.0438 14.7879H18.0767L17.2409 15.3955L17.5603 16.3789L16.7244 15.7702L15.8886 16.3789L16.2068 15.3955L15.371 14.7879H16.4039L16.7244 13.8057Z" fill="white"/>
<path d="M20.8577 13.8057L21.1771 14.7879H22.2112L21.3742 15.3955L21.6947 16.3789L20.8577 15.7702L20.0219 16.3789L20.3412 15.3955L19.5054 14.7879H20.5395L20.8577 13.8057Z" fill="white"/>
<path d="M24.9872 13.8057L25.3054 14.7879H26.3395L25.5037 15.3955L25.823 16.3789L24.9872 15.7702L24.1503 16.3789L24.4696 15.3955L23.6338 14.7879H24.6679L24.9872 13.8057Z" fill="white"/>
<path d="M4.29664 22.5186L4.61713 23.502H5.65009L4.81427 24.1095L5.13361 25.0918L4.29664 24.4854L3.46082 25.0918L3.78016 24.1095L2.94434 23.502H3.97729L4.29664 22.5186Z" fill="white"/>
<path d="M8.44365 22.5186L8.76414 23.502H9.7971L8.96128 24.1095L9.27947 25.0918L8.44365 24.4854L7.60783 25.0918L7.92717 24.1095L7.09019 23.502H8.12431L8.44365 22.5186Z" fill="white"/>
<path d="M12.5859 22.5186L12.9053 23.502H13.9394L13.1024 24.1095L13.4229 25.0918L12.5859 24.4854L11.7501 25.0918L12.0695 24.1095L11.2325 23.502H12.2666L12.5859 22.5186Z" fill="white"/>
<path d="M16.7244 22.5186L17.0438 23.502H18.0767L17.2409 24.1095L17.5603 25.0918L16.7244 24.4854L15.8886 25.0918L16.2068 24.1095L15.371 23.502H16.4039L16.7244 22.5186Z" fill="white"/>
<path d="M20.8577 22.5186L21.1771 23.502H22.2112L21.3742 24.1095L21.6947 25.0918L20.8577 24.4854L20.0219 25.0918L20.3412 24.1095L19.5054 23.502H20.5395L20.8577 22.5186Z" fill="white"/>
<path d="M24.9872 22.5186L25.3054 23.502H26.3395L25.5037 24.1095L25.823 25.0918L24.9872 24.4854L24.1503 25.0918L24.4696 24.1095L23.6338 23.502H24.6679L24.9872 22.5186Z" fill="white"/>
</g>
</g>
<defs>
<filter id="filter0_d_444_5898" x="2.86102e-06" y="2.86102e-06" width="56.5178" height="56.5178" filterUnits="userSpaceOnUse" color-interpolation-filters="sRGB">
<feFlood flood-opacity="0" result="BackgroundImageFix"/>
<feColorMatrix in="SourceAlpha" type="matrix" values="0 0 0 0 0 0 0 0 0 0 0 0 0 0 0 0 0 0 127 0" result="hardAlpha"/>
<feOffset/>
<feGaussianBlur stdDeviation="2.12939"/>
<feComposite in2="hardAlpha" operator="out"/>
<feColorMatrix type="matrix" values="0 0 0 0 0 0 0 0 0 0 0 0 0 0 0 0 0 0 0.25 0"/>
<feBlend mode="normal" in2="BackgroundImageFix" result="effect1_dropShadow_444_5898"/>
<feBlend mode="normal" in="SourceGraphic" in2="effect1_dropShadow_444_5898" result="shape"/>
</filter>
</defs>
</svg>
