<svg width="40" height="40" viewBox="0 0 40 40" fill="none" xmlns="http://www.w3.org/2000/svg">
<rect width="39.9995" height="39.9995" rx="5.33327" fill="white"/>
<circle cx="20.0378" cy="20.0367" r="12.2054" stroke="#A70000" stroke-width="0.996357"/>
<path d="M20.0381 7.83105C21.7756 7.83108 23.4474 9.07438 24.7129 11.2998C25.9701 13.5107 26.7636 16.5985 26.7637 20.0361C26.7637 23.4739 25.9701 26.5625 24.7129 28.7734C23.4474 30.9988 21.7756 32.2422 20.0381 32.2422C18.3006 32.2422 16.6288 30.9988 15.3633 28.7734C14.1061 26.5625 13.3125 23.4739 13.3125 20.0361C13.3126 16.5985 14.1061 13.5107 15.3633 11.2998C16.6288 9.07439 18.3006 7.83105 20.0381 7.83105Z" stroke="#A70000" stroke-width="0.996357"/>
<path d="M10.0738 12.564C11.3192 13.8094 13.0214 16.3003 20.0373 16.3003C27.0533 16.3003 29.0046 13.8094 30.25 12.564" stroke="#A70000" stroke-width="0.996357"/>
<path d="M30.2504 27.5093C29.005 26.2639 27.3028 23.773 20.2868 23.773C13.2709 23.773 11.3196 26.2639 10.0742 27.5093" stroke="#A70000" stroke-width="0.996357"/>
<line x1="20.2872" y1="7.33301" x2="20.2872" y2="32.7401" stroke="#A70000" stroke-width="0.996357"/>
<line x1="32.7422" y1="20.2858" x2="7.33509" y2="20.2858" stroke="#A70000" stroke-width="0.996357"/>
</svg>
