<svg width="40" height="40" viewBox="0 0 40 40" fill="none" xmlns="http://www.w3.org/2000/svg">
<rect width="39.9995" height="39.9995" rx="5.33327" fill="white"/>
<path d="M23.6499 24.3877H21.4218L21.2207 26.2813C21.2239 26.2537 21.4483 26.1966 21.4779 26.1871C21.57 26.1595 21.6632 26.1384 21.7574 26.1225C21.9447 26.0918 22.1363 26.0844 22.3258 26.1024C22.6962 26.1384 23.0593 26.277 23.3356 26.53C23.7103 26.873 23.8807 27.3916 23.814 27.8923C23.7611 28.2828 23.5631 28.685 23.2339 28.9126C22.5301 29.4006 21.4896 29.3529 20.7656 28.9274" stroke="#A70000" stroke-width="0.604931" stroke-linecap="round" stroke-linejoin="round"/>
<path d="M27.6202 16.5301C27.8467 16.5301 28.0649 16.5603 28.2755 16.6111C28.4343 16.6259 28.5577 16.7587 28.5577 16.9217C28.5577 17.0941 28.4186 17.2349 28.2452 17.2351L28.1651 17.2273C27.9895 17.1829 27.8075 17.157 27.6193 17.157C26.4105 17.157 25.4289 18.1367 25.4288 19.3465C25.4288 20.5563 26.4094 21.5369 27.6193 21.5369C28.7545 21.5369 28.755 21.5364 28.755 19.8142C28.7549 19.7286 28.6833 19.6599 28.5987 19.6599H27.6202C27.4477 19.6599 27.3068 19.52 27.3068 19.3465C27.3068 19.173 27.4467 19.033 27.6202 19.033H28.5987C29.3809 19.0518 29.3624 19.0511 29.3624 19.8142C29.3624 19.8703 29.3729 19.9245 29.3624 19.9763C29.3163 21.7723 29.3097 22.0163 28.2189 22.1189L27.6827 22.158C26.1278 22.158 24.8048 20.9004 24.8048 19.3455C24.8049 17.7907 26.0654 16.5301 27.6202 16.5301Z" fill="#A70000"/>
<path d="M27.6202 16.5301C27.8467 16.5301 28.0649 16.5603 28.2755 16.6111C28.4343 16.6259 28.5577 16.7587 28.5577 16.9217C28.5577 17.0941 28.4186 17.2349 28.2452 17.2351L28.1651 17.2273C27.9895 17.1829 27.8075 17.157 27.6193 17.157C26.4105 17.157 25.4289 18.1367 25.4288 19.3465C25.4288 20.5563 26.4094 21.5369 27.6193 21.5369C28.7545 21.5369 28.755 21.5364 28.755 19.8142C28.7549 19.7286 28.6833 19.6599 28.5987 19.6599H27.6202C27.4477 19.6599 27.3068 19.52 27.3068 19.3465C27.3068 19.173 27.4467 19.033 27.6202 19.033H28.5987C29.3809 19.0518 29.3624 19.0511 29.3624 19.8142C29.3624 19.8703 29.3729 19.9245 29.3624 19.9763C29.3163 21.7723 29.3097 22.0163 28.2189 22.1189L27.6827 22.158C26.1278 22.158 24.8048 20.9004 24.8048 19.3455C24.8049 17.7907 26.0654 16.5301 27.6202 16.5301Z" stroke="#A70000"/>
<path fill-rule="evenodd" clip-rule="evenodd" d="M29.445 17.8156C29.1893 17.8156 28.9807 17.6085 28.9807 17.3513C28.9807 17.094 29.1877 16.8869 29.445 16.8869C29.7023 16.8869 29.9094 17.094 29.9094 17.3513C29.9094 17.6085 29.7023 17.8156 29.445 17.8156Z" fill="#A70000"/>
<path d="M27.6204 23.6739C27.8469 23.6739 28.0651 23.7041 28.2757 23.7549C28.4345 23.7697 28.5579 23.9025 28.5579 24.0655C28.5579 24.2379 28.4188 24.3787 28.2454 24.3789L28.1653 24.3711C27.9897 24.3267 27.8077 24.3008 27.6194 24.3008C26.4107 24.3008 25.4291 25.2805 25.429 26.4903C25.429 27.7001 26.4096 28.6807 27.6194 28.6807C28.7547 28.6807 28.7552 28.6802 28.7552 26.958C28.7551 26.8724 28.6835 26.8037 28.5989 26.8037H27.6204C27.4479 26.8037 27.3069 26.6638 27.3069 26.4903C27.307 26.3168 27.4469 26.1768 27.6204 26.1768H28.5989C29.381 26.1956 29.3626 26.1771 29.3626 26.6797V27.1201C29.3626 29.3045 28.8624 29.3047 27.9808 29.3047C25.7544 29.3047 24.805 28.0442 24.805 26.4893C24.805 24.9345 26.0656 23.6739 27.6204 23.6739Z" fill="#A70000"/>
<path d="M27.6204 23.6739C27.8469 23.6739 28.0651 23.7041 28.2757 23.7549C28.4345 23.7697 28.5579 23.9025 28.5579 24.0655C28.5579 24.2379 28.4188 24.3787 28.2454 24.3789L28.1653 24.3711C27.9897 24.3267 27.8077 24.3008 27.6194 24.3008C26.4107 24.3008 25.4291 25.2805 25.429 26.4903C25.429 27.7001 26.4096 28.6807 27.6194 28.6807C28.7547 28.6807 28.7552 28.6802 28.7552 26.958C28.7551 26.8724 28.6835 26.8037 28.5989 26.8037H27.6204C27.4479 26.8037 27.3069 26.6638 27.3069 26.4903C27.307 26.3168 27.4469 26.1768 27.6204 26.1768H28.5989C29.381 26.1956 29.3626 26.1771 29.3626 26.6797V27.1201C29.3626 29.3045 28.8624 29.3047 27.9808 29.3047C25.7544 29.3047 24.805 28.0442 24.805 26.4893C24.805 24.9345 26.0656 23.6739 27.6204 23.6739Z" stroke="#A70000"/>
<path fill-rule="evenodd" clip-rule="evenodd" d="M29.4452 24.959C29.1895 24.959 28.9808 24.7519 28.9808 24.4947C28.9808 24.2374 29.1879 24.0303 29.4452 24.0303C29.7025 24.0303 29.9095 24.2374 29.9095 24.4947C29.9095 24.7519 29.7025 24.959 29.4452 24.959Z" fill="#A70000"/>
<path d="M23.0212 21.9753V16.8323C23.0212 16.7355 22.898 16.6944 22.8399 16.7718L20.172 20.329C20.1222 20.3954 20.1696 20.4902 20.2526 20.4902H24.0112" stroke="#A70000" stroke-width="0.604931" stroke-linecap="round"/>
<path d="M9.58046 29.5128C9.81215 29.7445 10.1878 29.7445 10.4195 29.5128L14.1952 25.7371C14.4269 25.5054 14.4269 25.1297 14.1952 24.898C13.9635 24.6663 13.5879 24.6663 13.3562 24.898L9.99998 28.2542L6.64378 24.898C6.41209 24.6663 6.03643 24.6663 5.80473 24.898C5.57304 25.1297 5.57304 25.5054 5.80473 25.7371L9.58046 29.5128ZM9.99998 10.6661L9.40668 10.6661L9.40668 29.0933L9.99998 29.0933L10.5933 29.0933L10.5933 10.6661L9.99998 10.6661Z" fill="#A70000"/>
<path d="M18.1324 10.2466C17.9007 10.0149 17.5251 10.0149 17.2934 10.2466L13.5177 14.0224C13.286 14.2541 13.286 14.6297 13.5177 14.8614C13.7494 15.0931 14.125 15.0931 14.3567 14.8614L17.7129 11.5052L21.0691 14.8614C21.3008 15.0931 21.6765 15.0931 21.9082 14.8614C22.1399 14.6297 22.1399 14.2541 21.9082 14.0224L18.1324 10.2466ZM17.7129 29.0933L18.3062 29.0933L18.3062 10.6662L17.7129 10.6662L17.1196 10.6662L17.1196 29.0933L17.7129 29.0933Z" fill="#A70000"/>
</svg>
