<svg width="16" height="19" viewBox="0 0 16 19" fill="none" xmlns="http://www.w3.org/2000/svg">
<path d="M7.34466 11.2917C7.33318 11.2575 7.36188 11.1552 7.36188 11.1211V10.5183C7.36188 10.4387 7.39058 10.3648 7.44798 10.3022L7.66611 10.0861V9.82457L6.96006 9.59143L6.94284 9.58574V9.59711L5.42742 8.99435C5.41594 8.99435 5.40446 8.98298 5.40446 8.98298L4.796 8.6816C4.72137 8.64748 4.66971 8.58493 4.64675 8.50532L4.03829 6.70273C4.0268 6.66862 4.02106 6.64018 4.02106 6.60607V5.40623C4.02106 5.36074 4.03254 5.31525 4.05551 5.26976L4.3253 4.72955V4.0813L3.93496 3.88797C2.87876 4.64426 2.04643 5.73605 1.63887 6.96431C0.973002 8.82945 1.29446 11.0187 2.44824 12.6166V12.6223C3.47574 14.1235 5.22077 15.1243 7.05765 15.2949C7.21837 15.6133 7.41928 15.9033 7.67185 16.1592C7.55705 16.1933 7.44224 16.2104 7.38484 16.2047C5.12893 16.1365 2.95338 14.9651 1.69053 13.1227C0.381758 11.303 0.0201239 8.82945 0.783574 6.68568C1.48388 4.58171 3.22317 2.85304 5.3528 2.19342C5.8809 2.01145 6.43196 1.89772 6.98302 1.84655C7.18967 1.82949 7.40206 1.81812 7.60871 1.81812C7.90146 1.81812 8.19421 1.83517 8.48696 1.86929C8.72805 1.90341 9.75555 2.11949 10.1 2.2446C10.674 2.44931 11.2308 2.72225 11.7359 3.06912L11.8852 3.17148C13.6934 4.40543 14.807 6.49802 14.9218 8.65317V8.6418C14.9218 8.69298 14.9275 8.74415 14.9275 8.78964C14.9275 8.86357 14.9332 8.9318 14.9332 9.00573C14.9332 9.87575 14.7668 10.7515 14.4625 11.576C14.3994 11.7409 14.2903 12.0025 14.1813 12.2129C14.0378 11.8546 13.8311 11.4623 13.6302 11.2121C13.8541 10.5979 13.9861 9.94967 14.0205 9.30711C13.9115 9.30711 13.8139 9.23887 13.7622 9.1422L13.1538 7.94237C13.1538 7.94237 13.1308 7.88551 13.1251 7.86276L12.8495 6.36155V6.33312L12.7749 5.34937L12.1033 5.0878C11.9885 5.04231 11.9139 4.93426 11.9139 4.80916V4.61583L11.2997 3.85385C11.2997 3.85385 11.2767 3.83679 11.2652 3.82542L11.2538 3.81973C10.8577 3.54678 10.4329 3.32501 9.9909 3.15442L9.77852 3.97895C9.76704 4.03013 9.73833 4.07562 9.69815 4.11542C9.57761 4.23484 9.38818 4.23484 9.26763 4.11542L8.71083 3.56384L7.86702 3.28521C7.8211 3.26815 7.78091 3.2454 7.74647 3.21128C7.62593 3.09187 7.62593 2.90422 7.74647 2.7848L7.80962 2.72225C7.74073 2.72225 7.67759 2.71657 7.60871 2.71657C7.42502 2.71657 7.24133 2.72794 7.05765 2.745C6.63861 2.77912 6.22531 2.86441 5.8235 2.98383L5.90386 3.02932L6.98876 3.00089C6.98876 3.00089 7.0232 2.9952 7.04043 2.9952C7.20689 2.9952 7.33892 3.1203 7.34466 3.28521V4.03581L7.64315 3.31364L8.00478 3.72306C8.05071 3.66051 8.11959 3.6207 8.18847 3.60365C8.30902 3.57521 8.4353 3.62639 8.50418 3.73443L8.76249 3.99032L9.06673 4.2917L9.67519 4.89446C9.67519 4.89446 9.69815 4.92289 9.70963 4.93995C9.80148 5.07642 9.76703 5.26408 9.62353 5.35506L8.73953 5.94076L7.70055 6.97L7.57427 7.11784L7.45946 7.20882H6.77637L6.12199 7.42491V8.62474L7.13227 9.02847L7.91294 9.28436L8.4066 9.03985C8.44678 9.0171 8.48696 9.00573 8.53288 9.00573L9.74407 8.9773C9.83018 8.9773 9.91628 9.01141 9.97942 9.07396L10.2492 9.36397L10.8921 9.68241C9.28485 9.65966 8.09663 10.3079 7.31596 11.286L7.34466 11.2917ZM7.01172 3.00089L7.24133 6.61175L7.80388 6.05448L8.36642 5.49722C8.36642 5.49722 8.39512 5.47447 8.41234 5.4631L7.62593 6.61175L7.24133 6.72548L6.9371 4.29739L8.27457 4.33719L7.88424 4.72387C7.7924 4.81485 7.66037 4.83759 7.54557 4.78642L6.9371 4.51347C6.82804 4.46798 6.75915 4.35994 6.75915 4.24052V3.6207L5.85794 3.64345C5.80054 3.64345 5.75461 3.63208 5.70295 3.60365L5.09449 3.27383C5.09449 3.27383 5.08301 3.26815 5.07727 3.26246C4.89358 3.34207 4.71563 3.43305 4.53768 3.52972L4.76729 3.64345C4.87062 3.68894 4.93376 3.79698 4.93376 3.91071V4.81485C4.93376 4.86034 4.92228 4.90583 4.89932 4.95132L4.62953 5.49153V6.57195L5.18059 8.20963L5.53648 8.38591L4.53194 7.86845C4.53194 7.73766 4.37696 3.55815 4.50324 3.51266L4.76729 3.07481C4.9108 2.9554 6.51806 3.17717 7.00598 3.00657L7.01172 3.00089Z" fill="black"/>
<mask id="mask0_444_6144" style="mask-type:luminance" maskUnits="userSpaceOnUse" x="0" y="1" width="15" height="16">
<path d="M7.34466 11.2917C7.33318 11.2575 7.36188 11.1552 7.36188 11.1211V10.5183C7.36188 10.4387 7.39058 10.3648 7.44798 10.3022L7.66611 10.0861V9.82457L6.96006 9.59143L6.94284 9.58574V9.59711L5.42742 8.99435C5.41594 8.99435 5.40446 8.98298 5.40446 8.98298L4.796 8.6816C4.72137 8.64748 4.66971 8.58493 4.64675 8.50532L4.03829 6.70273C4.0268 6.66862 4.02106 6.64018 4.02106 6.60607V5.40623C4.02106 5.36074 4.03254 5.31525 4.05551 5.26976L4.3253 4.72955V4.0813L3.93496 3.88797C2.87876 4.64426 2.04643 5.73605 1.63887 6.96431C0.973002 8.82945 1.29446 11.0187 2.44824 12.6166V12.6223C3.47574 14.1235 5.22077 15.1243 7.05765 15.2949C7.21837 15.6133 7.41928 15.9033 7.67185 16.1592C7.55705 16.1933 7.44224 16.2104 7.38484 16.2047C5.12893 16.1365 2.95338 14.9651 1.69053 13.1227C0.381758 11.303 0.0201239 8.82945 0.783574 6.68568C1.48388 4.58171 3.22317 2.85304 5.3528 2.19342C5.8809 2.01145 6.43196 1.89772 6.98302 1.84655C7.18967 1.82949 7.40206 1.81812 7.60871 1.81812C7.90146 1.81812 8.19421 1.83517 8.48696 1.86929C8.72805 1.90341 9.75555 2.11949 10.1 2.2446C10.674 2.44931 11.2308 2.72225 11.7359 3.06912L11.8852 3.17148C13.6934 4.40543 14.807 6.49802 14.9218 8.65317V8.6418C14.9218 8.69298 14.9275 8.74415 14.9275 8.78964C14.9275 8.86357 14.9332 8.9318 14.9332 9.00573C14.9332 9.87575 14.7668 10.7515 14.4625 11.576C14.3994 11.7409 14.2903 12.0025 14.1813 12.2129C14.0378 11.8546 13.8311 11.4623 13.6302 11.2121C13.8541 10.5979 13.9861 9.94967 14.0205 9.30711C13.9115 9.30711 13.8139 9.23887 13.7622 9.1422L13.1538 7.94237C13.1538 7.94237 13.1308 7.88551 13.1251 7.86276L12.8495 6.36155V6.33312L12.7749 5.34937L12.1033 5.0878C11.9885 5.04231 11.9139 4.93426 11.9139 4.80916V4.61583L11.2997 3.85385C11.2997 3.85385 11.2767 3.83679 11.2652 3.82542L11.2538 3.81973C10.8577 3.54678 10.4329 3.32501 9.9909 3.15442L9.77852 3.97895C9.76704 4.03013 9.73833 4.07562 9.69815 4.11542C9.57761 4.23484 9.38818 4.23484 9.26763 4.11542L8.71083 3.56384L7.86702 3.28521C7.8211 3.26815 7.78091 3.2454 7.74647 3.21128C7.62593 3.09187 7.62593 2.90422 7.74647 2.7848L7.80962 2.72225C7.74073 2.72225 7.67759 2.71657 7.60871 2.71657C7.42502 2.71657 7.24133 2.72794 7.05765 2.745C6.63861 2.77912 6.22531 2.86441 5.8235 2.98383L5.90386 3.02932L6.98876 3.00089C6.98876 3.00089 7.0232 2.9952 7.04043 2.9952C7.20689 2.9952 7.33892 3.1203 7.34466 3.28521V4.03581L7.64315 3.31364L8.00478 3.72306C8.05071 3.66051 8.11959 3.6207 8.18847 3.60365C8.30902 3.57521 8.4353 3.62639 8.50418 3.73443L8.76249 3.99032L9.06673 4.2917L9.67519 4.89446C9.67519 4.89446 9.69815 4.92289 9.70963 4.93995C9.80148 5.07642 9.76703 5.26408 9.62353 5.35506L8.73953 5.94076L7.70055 6.97L7.57427 7.11784L7.45946 7.20882H6.77637L6.12199 7.42491V8.62474L7.13227 9.02847L7.91294 9.28436L8.4066 9.03985C8.44678 9.0171 8.48696 9.00573 8.53288 9.00573L9.74407 8.9773C9.83018 8.9773 9.91628 9.01141 9.97942 9.07396L10.2492 9.36397L10.8921 9.68241C9.28485 9.65966 8.09663 10.3079 7.31596 11.286L7.34466 11.2917ZM7.01172 3.00089L7.24133 6.61175L7.80388 6.05448L8.36642 5.49722C8.36642 5.49722 8.39512 5.47447 8.41234 5.4631L7.62593 6.61175L7.24133 6.72548L6.9371 4.29739L8.27457 4.33719L7.88424 4.72387C7.7924 4.81485 7.66037 4.83759 7.54557 4.78642L6.9371 4.51347C6.82804 4.46798 6.75915 4.35994 6.75915 4.24052V3.6207L5.85794 3.64345C5.80054 3.64345 5.75461 3.63208 5.70295 3.60365L5.09449 3.27383C5.09449 3.27383 5.08301 3.26815 5.07727 3.26246C4.89358 3.34207 4.71563 3.43305 4.53768 3.52972L4.76729 3.64345C4.87062 3.68894 4.93376 3.79698 4.93376 3.91071V4.81485C4.93376 4.86034 4.92228 4.90583 4.89932 4.95132L4.62953 5.49153V6.57195L5.18059 8.20963L5.53648 8.38591L4.53194 7.86845C4.53194 7.73766 4.37696 3.55815 4.50324 3.51266L4.76729 3.07481C4.9108 2.9554 6.51806 3.17717 7.00598 3.00657L7.01172 3.00089Z" fill="white"/>
</mask>
<g mask="url(#mask0_444_6144)">
<path d="M14.939 9.02279C14.939 5.04376 11.6828 1.81812 7.66615 1.81812C3.64946 1.81812 0.39328 5.04376 0.39328 9.02279C0.39328 13.0018 3.64946 16.2275 7.66615 16.2275C11.6828 16.2275 14.939 13.0018 14.939 9.02279Z" fill="black" stroke="black" stroke-width="0.775568" stroke-linejoin="round"/>
</g>
<path d="M7.34466 11.2917C7.33318 11.2575 7.36188 11.1552 7.36188 11.1211V10.5183C7.36188 10.4387 7.39058 10.3648 7.44798 10.3022L7.66611 10.0861V9.82457L6.96006 9.59143L6.94284 9.58574V9.59711L5.42742 8.99435C5.41594 8.99435 5.40446 8.98298 5.40446 8.98298L4.796 8.6816C4.72137 8.64748 4.66971 8.58493 4.64675 8.50532L4.03829 6.70273C4.0268 6.66862 4.02106 6.64018 4.02106 6.60607V5.40624C4.02106 5.36074 4.03254 5.31525 4.05551 5.26976L4.3253 4.72955V4.0813L3.93496 3.88797C2.87876 4.64426 2.04643 5.73605 1.63887 6.96431C0.973002 8.82945 1.29446 11.0187 2.44824 12.6166V12.6223C3.47574 14.1235 5.22077 15.1243 7.05765 15.2949C7.21837 15.6133 7.41928 15.9033 7.67185 16.1592C7.55705 16.1933 7.44224 16.2104 7.38484 16.2047C5.12893 16.1365 2.95338 14.9651 1.69053 13.1227C0.381758 11.303 0.0201239 8.82945 0.783574 6.68568C1.48388 4.58171 3.22317 2.85304 5.3528 2.19342C5.8809 2.01145 6.43196 1.89772 6.98302 1.84655C7.18967 1.82949 7.40206 1.81812 7.60871 1.81812C7.90146 1.81812 8.19421 1.83517 8.48696 1.86929C8.72805 1.90341 9.75555 2.11949 10.1 2.2446C10.674 2.44931 11.2308 2.72225 11.7359 3.06912L11.8852 3.17148C13.6934 4.40543 14.807 6.49802 14.9218 8.65317V8.6418C14.9218 8.69298 14.9275 8.74415 14.9275 8.78964C14.9275 8.86357 14.9332 8.9318 14.9332 9.00573C14.9332 9.87575 14.7668 10.7515 14.4625 11.576C14.3994 11.7409 14.2903 12.0025 14.1813 12.2129C14.0378 11.8546 13.8311 11.4623 13.6302 11.2121C13.8541 10.5979 13.9861 9.94967 14.0205 9.30711C13.9115 9.30711 13.8139 9.23887 13.7622 9.1422L13.1538 7.94237C13.1538 7.94237 13.1308 7.88551 13.1251 7.86276L12.8495 6.36155V6.33312L12.7749 5.34937L12.1033 5.0878C11.9885 5.04231 11.9139 4.93426 11.9139 4.80916V4.61583L11.2997 3.85385C11.2997 3.85385 11.2767 3.83679 11.2652 3.82542L11.2538 3.81973C10.8577 3.54678 10.4329 3.32501 9.9909 3.15442L9.77852 3.97895C9.76704 4.03013 9.73833 4.07562 9.69815 4.11542C9.57761 4.23484 9.38818 4.23484 9.26763 4.11542L8.71083 3.56384L7.86702 3.28521C7.8211 3.26815 7.78091 3.2454 7.74647 3.21128C7.62593 3.09187 7.62593 2.90422 7.74647 2.7848L7.80962 2.72225C7.74073 2.72225 7.67759 2.71657 7.60871 2.71657C7.42502 2.71657 7.24133 2.72794 7.05765 2.745C6.63861 2.77912 6.22531 2.86441 5.8235 2.98383L5.90386 3.02932L6.98876 3.00089C6.98876 3.00089 7.0232 2.9952 7.04043 2.9952C7.20689 2.9952 7.33892 3.1203 7.34466 3.28521V4.03581L7.64315 3.31364L8.00478 3.72306C8.05071 3.66051 8.11959 3.6207 8.18847 3.60365C8.30902 3.57521 8.4353 3.62639 8.50418 3.73443L8.76249 3.99032L9.06673 4.2917L9.67519 4.89446C9.67519 4.89446 9.69815 4.92289 9.70963 4.93995C9.80148 5.07642 9.76703 5.26407 9.62353 5.35506L8.73953 5.94076L7.70055 6.97L7.57427 7.11784L7.45946 7.20882H6.77637L6.12199 7.42491V8.62474L7.13227 9.02847L7.91294 9.28436L8.4066 9.03985C8.44678 9.0171 8.48696 9.00573 8.53288 9.00573L9.74407 8.9773C9.83018 8.9773 9.91628 9.01141 9.97942 9.07396L10.2492 9.36397L10.8921 9.68241C9.28486 9.65966 8.09663 10.3079 7.31596 11.286L7.34466 11.2917ZM7.01172 3.00089L7.24133 6.61175L7.80388 6.05448L8.36642 5.49722C8.36642 5.49722 8.39512 5.47447 8.41234 5.4631L7.62593 6.61175L7.24133 6.72548L6.9371 4.29739L8.27457 4.33719L7.88424 4.72387C7.7924 4.81485 7.66037 4.83759 7.54557 4.78642L6.9371 4.51347C6.82804 4.46798 6.75915 4.35994 6.75915 4.24052V3.6207L5.85794 3.64345C5.80054 3.64345 5.75461 3.63208 5.70295 3.60365L5.09449 3.27383C5.09449 3.27383 5.08301 3.26815 5.07727 3.26246C4.89358 3.34207 4.71563 3.43305 4.53769 3.52972L4.76729 3.64345C4.87062 3.68894 4.93376 3.79698 4.93376 3.91071V4.81485C4.93376 4.86034 4.92228 4.90583 4.89932 4.95132L4.62953 5.49153V6.57195L5.18059 8.20963L5.53648 8.38591L4.53194 7.86845C4.53194 7.73766 4.37696 3.55815 4.50324 3.51266L4.76729 3.07481C4.9108 2.9554 6.51806 3.17717 7.00598 3.00657L7.01172 3.00089Z" stroke="black" stroke-width="0.775568" stroke-linejoin="round"/>
<path d="M10.5247 11.0868C9.23318 11.0868 8.18846 12.1274 8.18846 13.4012C8.18846 14.6749 9.23892 15.7155 10.5247 15.7155C11.8105 15.7155 12.861 14.6749 12.861 13.4012C12.861 12.1274 11.8105 11.0868 10.5247 11.0868ZM10.5247 14.8341C9.7498 14.8341 9.11838 14.2086 9.11838 13.441C9.11838 12.6733 9.7498 12.0478 10.5247 12.0478C11.2997 12.0478 11.9311 12.6733 11.9311 13.441C11.9311 14.2086 11.2997 14.8341 10.5247 14.8341Z" fill="black" stroke="black" stroke-width="0.705767"/>
<path d="M12.1782 14.3055L13.2516 15.403C13.4468 15.602 13.4238 15.9489 13.2 16.1764C12.9818 16.4038 12.6374 16.4266 12.448 16.2275L11.3057 15.0505" fill="black"/>
<path d="M12.1782 14.3055L13.2516 15.403C13.4468 15.602 13.4238 15.9489 13.2 16.1764C12.9818 16.4038 12.6374 16.4266 12.448 16.2275L11.3057 15.0505" stroke="black" stroke-width="0.705767"/>
</svg>
