<svg width="22" height="20" viewBox="0 0 22 20" fill="none" xmlns="http://www.w3.org/2000/svg">
<path d="M11.9133 15H19.0872M11.9133 15L10.0002 19M11.9133 15L14.7785 9.00902C15.0094 8.52627 15.1249 8.2849 15.2828 8.20862C15.4202 8.14228 15.5803 8.14228 15.7177 8.20862C15.8756 8.2849 15.9911 8.52627 16.222 9.00902L19.0872 15M19.0872 15L21.0002 19M1.00024 3H7.00024M7.00024 3H10.5002M7.00024 3V1M10.5002 3H13.0002M10.5002 3C10.0041 5.95729 8.85283 8.63618 7.16579 10.8844M9.00024 12C8.38772 11.7248 7.76289 11.3421 7.16579 10.8844M7.16579 10.8844C5.81327 9.84776 4.60301 8.42664 4.00024 7M7.16579 10.8844C5.5611 13.0229 3.47168 14.7718 1.00024 16" stroke="#231F20" stroke-width="2" stroke-linecap="round" stroke-linejoin="round"/>
</svg>
